<?xml version="1.0" standalone="no"?>
<!DOCTYPE svg PUBLIC "-//W3C//DTD SVG 20010904//EN"
 "http://www.w3.org/TR/2001/REC-SVG-20010904/DTD/svg10.dtd">
<svg version="1.0" xmlns="http://www.w3.org/2000/svg"
 width="500.000000pt" height="405.000000pt" viewBox="0 0 500.000000 405.000000"
 preserveAspectRatio="xMidYMid meet">

<g transform="translate(0.000000,405.000000) scale(0.100000,-0.100000)"
fill="#000000" stroke="none">
<path d="M2185 3285 c-492 -69 -806 -340 -919 -794 -35 -139 -46 -250 -46
-471 0 -221 11 -332 46 -471 115 -462 443 -738 949 -798 116 -14 454 -14 570
0 506 60 834 336 949 798 35 139 46 250 46 471 0 221 -11 332 -46 471 -115
462 -443 738 -949 798 -120 14 -487 12 -600 -4z"/>
</g>
</svg>
