<?xml version="1.0" encoding="UTF-8"?>
<!DOCTYPE svg PUBLIC "-//W3C//DTD SVG 1.1//EN" "http://www.w3.org/Graphics/SVG/1.1/DTD/svg11.dtd">
<svg xmlns="http://www.w3.org/2000/svg" version="1.1" width="125px" height="101px" style="shape-rendering:geometricPrecision; text-rendering:geometricPrecision; image-rendering:optimizeQuality; fill-rule:evenodd; clip-rule:evenodd" xmlns:xlink="http://www.w3.org/1999/xlink">
<g><path style="opacity:0.008" fill="#fc6767" d="M 88.5,15.5 C 88.1583,14.6618 87.4916,14.3284 86.5,14.5C 85.791,13.596 84.791,13.2627 83.5,13.5C 81.7354,12.5386 79.7354,12.2053 77.5,12.5C 67.1667,11.1667 56.8333,11.1667 46.5,12.5C 44.2646,12.2053 42.2646,12.5386 40.5,13.5C 39.209,13.2627 38.209,13.596 37.5,14.5C 36.5084,14.3284 35.8417,14.6618 35.5,15.5C 34.2438,15.5386 33.2438,15.0386 32.5,14C 34.087,13.1376 35.7536,12.4709 37.5,12C 53.8333,10 70.1667,10 86.5,12C 88.2464,12.4709 89.913,13.1376 91.5,14C 90.7562,15.0386 89.7562,15.5386 88.5,15.5 Z"/></g>
<g><path style="opacity:0.796" fill="#fb6666" d="M 46.5,12.5 C 56.8333,12.5 67.1667,12.5 77.5,12.5C 79.2646,13.4614 81.2646,13.7947 83.5,13.5C 84.209,14.404 85.209,14.7373 86.5,14.5C 86.8417,15.3382 87.5084,15.6716 88.5,15.5C 90.7706,17.2659 92.9373,19.2659 95,21.5C 95.7697,20.4019 96.603,20.4019 97.5,21.5C 97.3284,22.4916 97.6618,23.1583 98.5,23.5C 99.8425,25.3046 100.676,27.3046 101,29.5C 101.667,43.1667 101.667,56.8333 101,70.5C 100.374,74.0168 99.2072,76.6835 97.5,78.5C 96.1667,78.8333 96.1667,79.1667 97.5,79.5C 97.6716,80.4916 97.3382,81.1583 96.5,81.5C 96.1667,80.1667 95.8333,80.1667 95.5,81.5C 94.8333,81.5 94.5,81.8333 94.5,82.5C 93.8333,82.5 93.5,82.8333 93.5,83.5C 92.1667,83.8333 92.1667,84.1667 93.5,84.5C 93.1583,85.3382 92.4916,85.6716 91.5,85.5C 91.5,84.8333 91.1667,84.5 90.5,84.5C 89.8333,83.1667 89.1667,83.1667 88.5,84.5C 87.5084,84.3284 86.8417,84.6618 86.5,85.5C 85.5084,85.3284 84.8417,85.6618 84.5,86.5C 82.5853,86.2155 80.9187,86.5489 79.5,87.5C 67.8333,87.5 56.1667,87.5 44.5,87.5C 43.0813,86.5489 41.4147,86.2155 39.5,86.5C 39.1583,85.6618 38.4916,85.3284 37.5,85.5C 37.1583,84.6618 36.4916,84.3284 35.5,84.5C 34.8333,83.1667 34.1667,83.1667 33.5,84.5C 32.8333,84.5 32.5,84.8333 32.5,85.5C 30.6214,85.6068 30.2881,85.1068 31.5,84C 30.3333,82.8333 29.1667,81.6667 28,80.5C 26.3335,81.3402 26.1669,80.8402 27.5,79C 26.6721,78.0853 25.6721,77.4186 24.5,77C 24.8333,76.6667 25.1667,76.3333 25.5,76C 23.9544,74.5604 23.121,72.7271 23,70.5C 22.3333,56.8333 22.3333,43.1667 23,29.5C 23.3241,27.3046 24.1575,25.3046 25.5,23.5C 28.8449,21.5594 32.1782,18.8927 35.5,15.5C 36.4916,15.6716 37.1583,15.3382 37.5,14.5C 38.791,14.7373 39.791,14.404 40.5,13.5C 42.7354,13.7947 44.7354,13.4614 46.5,12.5 Z"/></g>
<g><path style="opacity:0.004" fill="#fc6767" d="M 29.5,15.5 C 31.9752,15.7467 31.9752,16.4134 29.5,17.5C 28.537,17.0302 28.537,16.3635 29.5,15.5 Z"/></g>
<g><path style="opacity:0.004" fill="#fc6767" d="M 92.5,16.5 C 93.4971,15.2875 94.4971,15.4542 95.5,17C 94.4232,17.4696 93.4232,17.3029 92.5,16.5 Z"/></g>
<g><path style="opacity:1" fill="#d23c3c" d="M 50.5,18.5 C 83.2747,13.9359 97.4414,27.9359 93,60.5C 90.8333,72 84,78.8333 72.5,81C 39.5579,85.7233 25.7246,71.5566 31,38.5C 33.847,28.1805 40.347,21.5139 50.5,18.5 Z"/></g>
<g><path style="opacity:0.004" fill="#fc6867" d="M 97.5,20.5 C 98.8333,21.1667 98.8333,21.1667 97.5,20.5 Z"/></g>
<g><path style="opacity:0.004" fill="#fc6867" d="M 25.5,23.5 C 24.8333,22.1667 24.8333,22.1667 25.5,23.5 Z"/></g>
<g><path style="opacity:0.004" fill="#fc6867" d="M 98.5,22.5 C 99.8333,23.1667 99.8333,23.1667 98.5,22.5 Z"/></g>
<g><path style="opacity:1" fill="#d80201" d="M 42.5,30.5 C 55.2912,29.9155 58.9578,35.4155 53.5,47C 41.9339,51.4146 36.7672,47.5812 38,35.5C 39.025,33.313 40.525,31.6464 42.5,30.5 Z"/></g>
<g><path style="opacity:1" fill="#d80302" d="M 72.5,30.5 C 83.1566,28.6581 87.6566,32.9915 86,43.5C 85.2155,45.286 84.0488,46.786 82.5,48C 71.4009,50.8945 66.5676,46.7278 68,35.5C 69.025,33.313 70.525,31.6464 72.5,30.5 Z"/></g>
<g><path style="opacity:0.004" fill="#fc6867" d="M 97.5,78.5 C 98.8333,79.1667 98.8333,79.1667 97.5,78.5 Z"/></g>
<g><path style="opacity:0.004" fill="#fb6766" d="M 95.5,81.5 C 95.8333,81.5 96.1667,81.5 96.5,81.5C 96.3147,82.1701 95.9813,82.1701 95.5,81.5 Z"/></g>
<g><path style="opacity:0.004" fill="#fc6867" d="M 94.5,82.5 C 94.8333,82.5 95.1667,82.5 95.5,82.5C 95.3147,83.1701 94.9813,83.1701 94.5,82.5 Z"/></g>
<g><path style="opacity:0.004" fill="#fc6766" d="M 93.5,83.5 C 93.8333,83.5 94.1667,83.5 94.5,83.5C 94.3147,84.1701 93.9813,84.1701 93.5,83.5 Z"/></g>
<g><path style="opacity:0.01" fill="#fc6767" d="M 33.5,84.5 C 34.1667,84.5 34.8333,84.5 35.5,84.5C 35.8417,85.3382 36.5084,85.6716 37.5,85.5C 37.8417,86.3382 38.5084,86.6716 39.5,86.5C 40.9187,87.4511 42.5853,87.7845 44.5,87.5C 56.1667,88.8333 67.8333,88.8333 79.5,87.5C 81.4147,87.7845 83.0813,87.4511 84.5,86.5C 85.4916,86.6716 86.1583,86.3382 86.5,85.5C 87.4916,85.6716 88.1583,85.3382 88.5,84.5C 89.1667,84.5 89.8333,84.5 90.5,84.5C 91.1667,84.5 91.5,84.8333 91.5,85.5C 89.0045,87.7143 86.0045,88.8809 82.5,89C 68.8333,89.6667 55.1667,89.6667 41.5,89C 37.9955,88.8809 34.9955,87.7143 32.5,85.5C 33.1667,85.5 33.5,85.1667 33.5,84.5 Z"/></g>
</svg>
